HIERARCHY
ROOT Hips
{
  OFFSET 56.0181 95.9005 9.59405
  CHANNELS 6 Xposition Yposition Zposition Zrotation Xrotation Yrotation
  JOINT spine
  {
    OFFSET 0 7.96568 0.458067
    CHANNELS 3 Zrotation Xrotation Yrotation
    JOINT spine1
    {
      OFFSET 0 10.2431 0
      CHANNELS 3 Zrotation Xrotation Yrotation
      JOINT spine2
      {
        OFFSET 0 9.81475 0
        CHANNELS 3 Zrotation Xrotation Yrotation
        JOINT Neck
        {
          OFFSET 0 25.1986 1.20138
          CHANNELS 3 Zrotation Xrotation Yrotation
          JOINT Head
          {
            OFFSET 0 7.61315 0
            CHANNELS 3 Zrotation Xrotation Yrotation
            End Site
            {
              OFFSET 0 18.4281 -6.07733
            }
          }
        }
        JOINT RightShoulder
        {
          OFFSET -4.1327 10.5992 -0.575451
          CHANNELS 3 Zrotation Xrotation Yrotation
          JOINT RightArm
          {
            OFFSET 0 13.9018 0
            CHANNELS 3 Zrotation Xrotation Yrotation
            JOINT RightArmRoll
            {
              OFFSET 0 7.01788 0
              CHANNELS 3 Zrotation Xrotation Yrotation
              JOINT RightForeArm
              {
                OFFSET 0 20.4406 0
                CHANNELS 3 Zrotation Xrotation Yrotation
                JOINT RightForeArmRoll
                {
                  OFFSET 0 7.87515 0
                  CHANNELS 3 Zrotation Xrotation Yrotation
                  JOINT RightHand
                  {
                    OFFSET 0 15.8037 0
                    CHANNELS 3 Zrotation Xrotation Yrotation
                    End Site
                    {
                      OFFSET 0 0 0
                    }
                  }
                }
              }
            }
          }
        }
        JOINT LeftShoulder
        {
          OFFSET 4.1327 10.5992 -0.575451
          CHANNELS 3 Zrotation Xrotation Yrotation
          JOINT LeftArm
          {
            OFFSET 0 13.9018 0
            CHANNELS 3 Zrotation Xrotation Yrotation
            JOINT LeftArmRoll
            {
              OFFSET 0 7.01789 0
              CHANNELS 3 Zrotation Xrotation Yrotation
              JOINT LeftForeArm
              {
                OFFSET 0 20.4406 0
                CHANNELS 3 Zrotation Xrotation Yrotation
                JOINT LeftForeArmRoll
                {
                  OFFSET 0 7.87515 0
                  CHANNELS 3 Zrotation Xrotation Yrotation
                  JOINT LeftHand
                  {
                    OFFSET 0 15.8037 0
                    CHANNELS 3 Zrotation Xrotation Yrotation
                    End Site
                    {
                      OFFSET 0 0 0
                    }
                  }
                }
              }
            }
          }
        }
      }
    }
  }
  JOINT RightUpLeg
  {
    OFFSET -7.06048 -1.2947 -1.0861
    CHANNELS 3 Zrotation Xrotation Yrotation
    JOINT RightUpLegRoll
    {
      OFFSET 0 18.5308 0
      CHANNELS 3 Zrotation Xrotation Yrotation
      JOINT RightLeg
      {
        OFFSET 0 -22.9476 0
        CHANNELS 3 Zrotation Xrotation Yrotation
        JOINT RightLegRoll
        {
          OFFSET 0 23.0226 0
          CHANNELS 3 Zrotation Xrotation Yrotation
          JOINT RightFoot
          {
            OFFSET 0 19.1625 0
            CHANNELS 3 Zrotation Xrotation Yrotation
            JOINT RightToeBase
            {
              OFFSET 0 16.0188 0
              CHANNELS 3 Zrotation Xrotation Yrotation
              End Site
              {
                OFFSET 0.00678979 7.75781 -0.894207
              }
            }
          }
        }
      }
    }
  }
  JOINT LeftUpLeg
  {
    OFFSET 7.06048 -1.2947 -1.0861
    CHANNELS 3 Zrotation Xrotation Yrotation
    JOINT LeftUpLegRoll
    {
      OFFSET 0 18.5309 0
      CHANNELS 3 Zrotation Xrotation Yrotation
      JOINT LeftLeg
      {
        OFFSET 0 22.9475 0
        CHANNELS 3 Zrotation Xrotation Yrotation
        JOINT LeftLegRoll
        {
          OFFSET 0 23.2355 0
          CHANNELS 3 Zrotation Xrotation Yrotation
          JOINT LeftFoot
          {
            OFFSET 0 18.9496 0
            CHANNELS 3 Zrotation Xrotation Yrotation
            JOINT LeftToeBase
            {
              OFFSET 0 16.0188 0
              CHANNELS 3 Zrotation Xrotation Yrotation
              End Site
              {
                OFFSET -0.0304289 7.75781 -0.894207
              }
            }
          }
        }
      }
    }
  }
}
MOTION
Frames: 8
Frame Time: 0.00208333
59.4945 95.4487 9.20264 3.93506 3.06919 68.4819 -1.06366 -1.68605 1.18582 -2.08538 0.607701 2.47753 -2.11641 2.25148 2.51337 -25.8346 -12.5574 2.84084 21.4099 22.8649 -0.523012 23.8777 -4.595 0.266414 -129.73 82.6339 -104.789 -3.27074e-006 -1.41728e-005 -7.15951e-006 -18.491 52.4869 9.69107 -1.35853e-005 1.1069e-005 -3.00375 8.02978 -4.95109 0.697582 -77.6315 -16.1082 8.87172 -85.9544 23.7654 23.9162 6.58021e-006 -1.15318e-006 1.26356e-005 -41.7887 83.4754 45.1091 -6.83391e-006 -1.17793e-005 3.00002 -8.02966 -4.95107 -0.697575 175.11 -12.8208 5.67799 -180 7.01499e-015 178.73 178.994 10.5344 179.624 1.36435e-006 -1.14054e-006 0.457338 -23.109 72.6047 24.358 8.49154 34.8275 -1.92079 -178.026 8.26669 -0.0701107 4.54188e-006 -4.6773e-006 -0.964747 -3.72988 -10.7389 -0.104326 -2.08093e-006 -1.61506e-006 -0.150929 20.3445 69.9603 -21.3264 -8.13649 25.2327 3.48774 
59.504 95.4443 9.19066 3.95381 3.05185 68.473 -1.06133 -1.68446 1.18129 -2.07947 0.611025 2.46824 -2.1104 2.25482 2.50397 -25.8243 -12.4301 2.91133 21.4178 22.6694 -0.441003 23.8696 -4.60715 0.254204 -128.709 82.5017 -106.582 -3.27074e-006 -1.41728e-005 -7.15951e-006 -18.3209 51.0399 9.22721 -1.35853e-005 1.1069e-005 -3.00375 8.02978 -4.95109 0.697582 -77.5767 -16.1643 8.89838 -86.1304 23.6485 23.9205 6.58021e-006 -1.15318e-006 1.26356e-005 -41.7506 83.5468 45.1166 -6.83391e-006 -1.17793e-005 3.00002 -8.02966 -4.95107 -0.697575 175.109 -12.8391 5.6824 -180 7.01498e-015 178.73 178.995 10.5503 179.624 1.36435e-006 -1.14054e-006 0.458833 -23.125 72.617 24.3749 8.4881 34.8094 -1.90752 -178.025 8.2452 -0.073145 4.54188e-006 -4.6773e-006 -0.965369 -3.72936 -10.7432 -0.104444 -2.08093e-006 -1.61506e-006 -0.150511 20.3459 69.9604 -21.3281 -8.13649 25.2327 3.48774 
59.5091 95.4458 9.19153 3.97229 3.03495 68.4647 -1.05915 -1.68234 1.17689 -2.07409 0.615413 2.45924 -2.10494 2.25921 2.49487 -25.8132 -12.3207 2.97842 21.4242 22.4943 -0.362237 23.8516 -4.62147 0.240406 -127.841 82.3492 -108.178 -3.27074e-006 -1.41728e-005 -7.15951e-006 -18.1759 49.6415 8.80474 -1.35853e-005 1.1069e-005 -3.00375 8.02978 -4.95109 0.697582 -77.5246 -16.2214 8.92537 -86.2982 23.537 23.9244 6.58021e-006 -1.15318e-006 1.26356e-005 -41.7182 83.6136 45.1267 -6.83391e-006 -1.17793e-005 3.00002 -8.02966 -4.95107 -0.697575 175.108 -12.8558 5.68664 -180 7.01498e-015 178.73 178.996 10.5695 179.624 1.36435e-006 -1.14054e-006 0.460552 -23.1454 72.633 24.3966 8.48475 34.7902 -1.89493 -178.024 8.21703 -0.0795056 4.54188e-006 -4.6773e-006 -0.965802 -3.73342 -10.7331 -0.104787 -2.08093e-006 -1.61506e-006 -0.149852 20.3413 69.9546 -21.3237 -8.13649 25.2327 3.48774 
59.5132 95.4434 9.19662 3.99076 3.01889 68.4571 -1.05716 -1.67947 1.17273 -2.06937 0.621265 2.45077 -2.10013 2.26507 2.48632 -25.8035 -12.2333 3.04095 21.4306 22.344 -0.28805 23.8214 -4.63725 0.226043 -127.149 82.1746 -109.54 -3.27074e-006 -1.41728e-005 -7.15951e-006 -18.0535 48.3019 8.4241 -1.35853e-005 1.1069e-005 -3.00375 8.02978 -4.95109 0.697582 -77.4774 -16.2799 8.95282 -86.4551 23.4332 23.9274 6.58021e-006 -1.15318e-006 1.26356e-005 -41.6934 83.6748 45.1405 -6.83391e-006 -1.17793e-005 3.00002 -8.02966 -4.95107 -0.697575 175.106 -12.8708 5.69094 -180 7.01498e-015 178.73 178.997 10.5926 179.623 1.36435e-006 -1.14054e-006 0.462541 -23.1711 72.6532 24.4243 8.48148 34.7693 -1.88297 -178.022 8.18073 -0.0893523 4.54188e-006 -4.6773e-006 -0.966015 -3.74277 -10.706 -0.105384 -2.08093e-006 -1.61506e-006 -0.148916 20.3295 69.9418 -21.3121 -8.13649 25.2327 3.48774 
59.5171 95.4402 9.19434 4.00951 3.00408 68.4504 -1.05538 -1.67567 1.16895 -2.06541 0.628981 2.44307 -2.09609 2.27279 2.47856 -25.7976 -12.1723 3.09777 21.4384 22.2225 -0.219769 23.7766 -4.65376 0.212141 -126.65 81.9763 -110.638 -3.27074e-006 -1.41728e-005 -7.15951e-006 -17.9508 47.0309 8.08572 -1.35853e-005 1.1069e-005 -3.00375 8.02978 -4.95109 0.697582 -77.4373 -16.3402 8.98087 -86.5985 23.3395 23.9293 6.58021e-006 -1.15318e-006 1.26356e-005 -41.6782 83.7294 45.1593 -6.83391e-006 -1.17793e-005 3.00002 -8.02966 -4.95107 -0.697575 175.103 -12.884 5.69555 -180 7.01498e-015 178.73 178.999 10.6203 179.623 1.36435e-006 -1.14054e-006 0.464846 -23.2031 72.6786 24.459 8.47827 34.7462 -1.87162 -178.02 8.13483 -0.102844 4.54188e-006 -4.6773e-006 -0.965979 -3.75811 -10.6593 -0.106261 -2.08093e-006 -1.61506e-006 -0.147667 20.3095 69.9209 -21.2921 -8.13649 25.2327 3.48774 
59.5068 95.4402 9.18211 4.02882 2.99091 68.4447 -1.05385 -1.67073 1.16564 -2.06235 0.638961 2.4364 -2.09296 2.28278 2.47183 -25.7975 -12.1415 3.14772 21.449 22.1343 -0.158715 23.7147 -4.67029 0.199726 -126.356 81.7528 -111.447 -3.27074e-006 -1.41728e-005 -7.15951e-006 -17.865 45.8388 7.79016 -1.35853e-005 1.1069e-005 -3.00375 8.02978 -4.95109 0.697582 -77.4066 -16.403 9.00964 -86.7258 23.258 23.9298 6.58021e-006 -1.15318e-006 1.26356e-005 -41.6744 83.7763 45.1843 -6.83391e-006 -1.17793e-005 3.00002 -8.02966 -4.95107 -0.697575 175.099 -12.8951 5.7007 -180 7.01499e-015 178.73 179 10.6532 179.623 1.36435e-006 -1.14054e-006 0.467515 -23.2424 72.7099 24.5018 8.47508 34.7204 -1.86083 -178.019 8.07789 -0.120141 4.54188e-006 -4.6773e-006 -0.965663 -3.78013 -10.5903 -0.107445 -2.08093e-006 -1.61506e-006 -0.146068 20.28 69.8908 -21.2626 -8.13649 25.2327 3.48774 
59.5162 95.443 9.18215 4.05028 2.97767 68.4399 -1.05246 -1.6647 1.1622 -2.05998 0.651096 2.42949 -2.09051 2.29492 2.46489 -25.7919 -12.1333 3.19546 21.4518 22.0741 -0.0992349 23.6435 -4.69186 0.181998 -126.175 81.505 -112.089 -3.27074e-006 -1.41728e-005 -7.15951e-006 -17.7691 44.7047 7.512 -1.35853e-005 1.1069e-005 -3.00375 8.02978 -4.95109 0.697582 -77.3764 -16.4681 9.03969 -86.846 23.1823 23.9293 6.58021e-006 -1.15318e-006 1.26356e-005 -41.6785 83.8175 45.2129 -6.83391e-006 -1.17793e-005 3.00002 -8.02966 -4.95107 -0.697575 175.094 -12.9067 5.70701 -180 7.01499e-015 178.73 179.001 10.6926 179.624 1.36435e-006 -1.14054e-006 0.470663 -23.2918 72.7491 24.5557 8.47181 34.6906 -1.85033 -178.017 8.00504 -0.143453 4.54188e-006 -4.6773e-006 -0.965046 -3.81087 -10.4939 -0.10905 -2.08093e-006 -1.61506e-006 -0.144003 20.2396 69.8496 -21.2218 -8.13649 25.2327 3.48774 
59.5307 95.442 9.17782 4.07471 2.96263 68.4362 -1.05109 -1.65788 1.15805 -2.05805 0.664842 2.42117 -2.08847 2.30867 2.45654 -25.77 -12.1369 3.24575 21.4372 22.0331 -0.0356006 23.5713 -4.72302 0.152784 -126.023 81.2371 -112.687 -3.27074e-006 -1.41728e-005 -7.15951e-006 -17.6427 43.6019 7.22767 -1.35853e-005 1.1069e-005 -3.00375 8.02978 -4.95109 0.697582 -77.3379 -16.5351 9.07125 -86.9687 23.1049 23.9287 6.58021e-006 -1.15318e-006 1.26356e-005 -41.6855 83.8555 45.242 -6.83391e-006 -1.17793e-005 3.00002 -8.02966 -4.95107 -0.697575 175.088 -12.9205 5.71465 -180 7.01499e-015 178.731 179.001 10.7387 179.624 1.36435e-006 -1.14054e-006 0.474321 -23.3524 72.7968 24.6218 8.46838 34.6568 -1.83997 -178.013 7.91438 -0.174212 4.54188e-006 -4.6773e-006 -0.964149 -3.85104 -10.3695 -0.111129 -2.08093e-006 -1.61506e-006 -0.141426 20.1882 69.7973 -21.1702 -8.13649 25.2327 3.48774 
